HIERARCHY
ROOT Hips
{
 OFFSET 0.000000 0.000000 0.000000
 CHANNELS 6 Xposition Yposition Zposition Yrotation Xrotation Zrotation
 JOINT Chest
 {
  OFFSET 0.000000 9.585900 0.002600
  CHANNELS 3 Yrotation Xrotation Zrotation
  JOINT Chest2
  {
   OFFSET 0.000000 9.601200 -0.005300
   CHANNELS 3 Yrotation Xrotation Zrotation
   JOINT Chest3
   {
    OFFSET 0.000000 9.561800 0.000000
    CHANNELS 3 Yrotation Xrotation Zrotation
    JOINT Chest4
    {
     OFFSET 0.000000 9.552100 0.000000
     CHANNELS 3 Yrotation Xrotation Zrotation
     JOINT Neck
     {
      OFFSET 0.000000 14.453000 0.000000
      CHANNELS 3 Yrotation Xrotation Zrotation
      JOINT Head
      {
       OFFSET 0.000000 8.936500 -0.011300
       CHANNELS 3 Yrotation Xrotation Zrotation
       End Site
       {
        OFFSET 0.000000 17.073600 -0.006000
       }
      }
     }
     JOINT RightCollar
     {
      OFFSET -2.921100 9.558500 0.000000
      CHANNELS 3 Yrotation Xrotation Zrotation
      JOINT RightShoulder
      {
       OFFSET -13.519700 0.000000 0.000000
       CHANNELS 3 Yrotation Xrotation Zrotation
       JOINT RightElbow
       {
        OFFSET 0.000000 -29.696600 0.000000
        CHANNELS 3 Yrotation Xrotation Zrotation
        JOINT RightWrist
        {
         OFFSET 0.000000 -24.004700 0.000000
         CHANNELS 3 Yrotation Xrotation Zrotation
         End Site
         {
          OFFSET 0.000000 -17.728500 0.000000
         }
        }
       }
      }
     }
     JOINT LeftCollar
     {
      OFFSET 2.921100 9.558500 0.000000
      CHANNELS 3 Yrotation Xrotation Zrotation
      JOINT LeftShoulder
      {
       OFFSET 13.519700 0.000000 0.000000
       CHANNELS 3 Yrotation Xrotation Zrotation
       JOINT LeftElbow
       {
        OFFSET 0.000000 -29.696600 0.000000
        CHANNELS 3 Yrotation Xrotation Zrotation
        JOINT LeftWrist
        {
         OFFSET 0.000000 -24.004700 0.000000
         CHANNELS 3 Yrotation Xrotation Zrotation
         End Site
         {
          OFFSET 0.000000 -17.728500 0.000000
         }
        }
       }
      }
     }
    }
   }
  }
 }
 JOINT RightHip
 {
  OFFSET -7.771700 -0.012900 -0.001300
  CHANNELS 3 Yrotation Xrotation Zrotation
  JOINT RightKnee
  {
   OFFSET 0.000000 -40.869800 0.001200
   CHANNELS 3 Yrotation Xrotation Zrotation
   JOINT RightAnkle
   {
    OFFSET 0.000000 -39.717900 0.002100
    CHANNELS 3 Yrotation Xrotation Zrotation
    JOINT RightToe
    {
     OFFSET 0.000000 -4.965400 11.033500
     CHANNELS 3 Yrotation Xrotation Zrotation
     End Site
     {
      OFFSET 0.000000 -1.423100 5.872300
     }
    }
   }
  }
 }
 JOINT LeftHip
 {
  OFFSET 7.771700 -0.012900 -0.001300
  CHANNELS 3 Yrotation Xrotation Zrotation
  JOINT LeftKnee
  {
   OFFSET 0.000000 -40.869800 0.001200
   CHANNELS 3 Yrotation Xrotation Zrotation
   JOINT LeftAnkle
   {
    OFFSET 0.000000 -39.717900 0.002100
    CHANNELS 3 Yrotation Xrotation Zrotation
    JOINT LeftToe
    {
     OFFSET 0.000000 -4.965400 11.033500
     CHANNELS 3 Yrotation Xrotation Zrotation
     End Site
     {
      OFFSET 0.000000 -1.423100 5.872300
     }
    }
   }
  }
 }
}
MOTION
Frames: 5
Frame Time: 0.008333
-164.205855 48.886507 17.775300 178.743487 -32.705711 -4.778271 -0.283175 19.032533 2.346464 -0.073376 2.259843 0.274027 -0.112614 3.734469 0.471623 -0.298221 16.501572 1.949413 4.336607 17.410776 0.880626 7.703481 -3.566953 -0.024555 -2.060332 -2.010807 -2.826677 6.222068 -9.552200 -13.746809 -34.755029 -38.925172 86.715502 2.006835 3.220642 -12.961569 0.048812 -2.733909 2.793057 -7.946182 -2.778996 13.286926 60.695706 -63.183869 -100.794718 5.200275 10.649882 8.205907 3.857376 -52.674377 0.772301 123.796947 80.612369 134.882727 -19.946500 -7.368503 -0.630468 0.147142 0.148741 -0.649095 -13.675831 -53.738245 18.592291 -71.678206 64.736420 -77.851790 30.871533 6.655667 17.197060 -0.080971 -0.072952 0.005899
-164.216863 48.880818 17.772656 178.682306 -32.691925 -4.710061 -0.247917 19.013299 2.303630 -0.072491 2.259209 0.273155 -0.116187 3.719035 0.422024 -0.271465 16.510862 1.981097 4.329095 17.355097 0.844474 7.699952 -3.653006 -0.055296 -2.036156 -2.081692 -2.836429 6.205488 -9.508363 -13.720882 -34.729346 -38.922616 86.696508 1.999183 3.210419 -12.961372 0.060871 -2.768657 2.746731 -7.887404 -2.766964 13.295835 60.704642 -63.177823 -100.813821 5.163369 10.710052 8.081381 3.675691 -52.677214 0.693354 123.817319 80.579005 134.904868 -19.942819 -7.416345 -0.617864 0.173056 0.122278 -0.636510 -13.523724 -53.763110 18.536643 -71.617227 64.722212 -77.847350 30.907546 6.650552 17.288286 -0.134258 -0.093126 0.001135
-164.224430 48.876677 17.769838 178.671630 -32.682290 -4.696173 -0.251606 19.002908 2.274021 -0.069407 2.256205 0.269430 -0.110135 3.722849 0.417425 -0.257891 16.503059 1.982721 4.304588 17.262539 0.743654 7.706191 -3.708899 -0.035299 -2.015954 -2.153348 -2.850781 6.226721 -9.495043 -13.723528 -34.718297 -38.880981 86.667821 1.988963 3.205605 -12.963934 0.062138 -2.778639 2.744573 -7.835145 -2.773355 13.277114 60.728803 -63.145565 -100.833055 5.113463 10.777984 8.001940 3.397100 -52.671437 0.643214 123.975215 80.561295 135.066945 -19.929779 -7.449989 -0.622183 0.196716 0.083339 -0.618127 -13.445496 -53.774983 18.513483 -71.593472 64.701582 -77.833613 30.914178 6.649555 17.313356 -0.141039 -0.090050 0.004201
-164.227926 48.873610 17.767810 178.656367 -32.673315 -4.707848 -0.236876 19.000621 2.278591 -0.067710 2.253764 0.265472 -0.105893 3.723763 0.411235 -0.249497 16.492478 1.955444 4.289388 17.198875 0.700029 7.714411 -3.791529 -0.061128 -2.001689 -2.205668 -2.830471 6.249949 -9.494600 -13.736313 -34.696962 -38.855254 86.637721 1.953740 3.185030 -12.967302 0.064164 -2.790948 2.769315 -7.822034 -2.761529 13.288224 60.807389 -63.076068 -100.873625 5.093266 10.820945 7.881500 3.055852 -52.666827 0.624805 124.256508 80.555863 135.344629 -19.875558 -7.471301 -0.650421 0.227878 0.039858 -0.591774 -13.326296 -53.777252 18.518375 -71.587871 64.639520 -77.802894 30.888546 6.640185 17.302499 -0.108048 -0.057448 0.028815
-164.236031 48.868555 17.769956 178.647232 -32.635106 -4.696014 -0.234339 18.980205 2.257581 -0.066915 2.249446 0.260946 -0.100602 3.717588 0.406337 -0.254408 16.481230 1.921259 4.284766 17.147684 0.673660 7.720934 -3.882224 -0.112985 -1.979191 -2.272331 -2.823197 6.263064 -9.481320 -13.735869 -34.665475 -38.838317 86.605333 1.957235 3.197939 -12.982797 0.081206 -2.821058 2.766925 -7.726026 -2.760537 13.210810 60.622000 -63.111922 -100.748960 5.111773 10.842790 7.786698 2.712133 -52.693828 0.543724 124.718627 80.562863 135.791939 -19.816281 -7.492167 -0.691003 0.271806 0.002106 -0.559494 -13.250382 -53.815321 18.504834 -71.540658 64.616551 -77.764727 30.899151 6.640689 17.325068 -0.136426 -0.059501 0.057275
